<?xml version="1.0" standalone="no"?> <!DOCTYPE svg PUBLIC "-//W3C//DTD SVG 1.0//EN" "http://www.w3.org/TR/2001/REC-SVG-20010904/DTD/svg10.dtd" > <svg xmlns="http://www.w3.org/2000/svg" width="100%" height="100%">
<defs >
<font id="toonish" horiz-adv-x="494" ><font-face
    font-family="Toonish"
    units-per-em="1000"
    panose-1="0 0 0 0 0 0 0 0 0 0"
    ascent="750"
    descent="-250"
    alphabetic="0" />
<missing-glyph horiz-adv-x="164" />
<glyph unicode=" " glyph-name="space" horiz-adv-x="164" />
<glyph unicode="!" glyph-name="exclam" horiz-adv-x="339" d="M93 -27Q72 -23 56 -11T29 20T16 59T18 104Q23 125 36 142T66 171T105 188T147 189Q168 184 184 172T211 142T224 103T222 61Q217 38 204 20T174 -11T135 -27T93 -27ZM59 248Q60 247 61 270T64 333T68
421T72 524Q76 646 81 804L299 788L202 239Q161 242 129 245Q115 246 103 247T80 248T64 249T59 248Z" />
<glyph unicode="-" glyph-name="hyphen" horiz-adv-x="459" d="M33 271L44 415H419V281L33 271V271Z" />
<glyph unicode="." glyph-name="period" horiz-adv-x="236" d="M68 -12Q49 -8 34 5T10 36T-1 77T1 123Q5 145 16 163T43 192T77 208T115 209Q134 204 149 192T173 161T185 122T183 78Q178 54 167 36T140 5T106 -12T68 -12Z" />
<glyph unicode="/" glyph-name="slash" horiz-adv-x="760" d="M-28 -3Q-28 -3 -1 32T72 125T175 258T294 411Q436 594 617 827L790 696L142 -137L58 -69Q42 -56 27 -44T0 -23T-20 -9T-28 -3Z" />
<glyph unicode="0" glyph-name="zero" horiz-adv-x="551" d="M12 287Q-1 369 5 436T29 557T76 650T135 716T196 756T251 769H268Q299 769 332 758Q369 747 407 723T476 651T523 530T537 348Q534 277 522 224T490 132T449 67T402 24Q347 -16 279 -18H268Q202 -18
146 26T55 145Q44 167 37 187T26 223T19 247T17 257Q15 265 14 272T12 287ZM175 390Q173 337 179 302T197 243T223 208T252 191Q264 185 276 185Q280 185 283 186Q296 186 314 200T349 242T373 315T374 419Q374 422 374 425T373 432Q372 440 370 449Q368 457 366
466T359 487Q345 523 324 545T278 567H274Q248 565 227 547Q209 530 193 494T175 390Z" />
<glyph unicode="1" glyph-name="one" horiz-adv-x="384" d="M-9 668L135 774L315 763L310 -11L119 -22L120 557L48 537L-9 668V668Z" />
<glyph unicode="2" glyph-name="two" horiz-adv-x="490" d="M10 581Q26 632 53 672Q65 689 80 706T114 736T158 759T211 772Q249 775 291 764T368 730T429 670T458 585T443 478T368 349L213 172L488 178L467 3L13 -10L4 178L195 405Q233 444 255 478Q264 493 271
508T279 537T276 564T256 586Q239 596 224 591T196 571T172 538T150 502L10 581Z" />
<glyph unicode="3" glyph-name="three" horiz-adv-x="527" d="M418 402Q476 356 500 306T523 207T497 117T434 44T345 -2T243 -12Q208 -8 179 2T126 25T82 55T47 88Q12 126 -10 172L151 263Q164 246 181 227T218 195T257 177T298 184Q317 196 323 213T325 249T308
283T276 310Q259 321 241 324T206 328Q188 328 169 325L156 460Q197 456 225 464T270 484Q290 497 303 516Q314 539 314 554T289 584Q270 594 252 589T218 570T187 538T162 503L26 611Q45 648 74 680Q99 707 138 732T232 765Q274 771 317 762T397 730T459 674T492
598T483 505T418 402Z" />
<glyph unicode="4" glyph-name="four" horiz-adv-x="572" d="M573 273L448 252L445 -13H256L262 225L36 195L6 398L278 761L421 770V770L459 772V417L555 425L573 273ZM240 405L290 412V521L203 401L240 405Z" />
<glyph unicode="5" glyph-name="five" horiz-adv-x="495" d="M460 572L210 581L200 505Q229 505 262 500Q290 495 324 485T393 456Q416 444 436 417T471 355T489 277T484 192T450 108T380 32Q346 6 311 -5T239 -16T169 -9T104 11Q32 39 -37 93L56 281Q69 262 94
247T149 220T210 205T266 205T304 223T314 264Q311 283 297 297T261 320T213 335T160 343Q97 349 19 343L60 762L477 748L460 572Z" />
<glyph unicode="6" glyph-name="six" horiz-adv-x="522" d="M427 428Q463 403 483 375T511 317T520 261T515 210T503 168T491 140Q470 100 444 70T391 21T339 -9T292 -19H275Q244 -19 211 -8Q173 3 135 27T67 99T20 220T6 402Q9 472 21 525T52 618T94 683T141
726Q196 765 264 768H275Q339 768 393 727T483 615L345 534Q334 549 323 557T301 569Q289 575 277 575Q273 575 270 574Q259 574 245 566T218 540T193 496T178 433Q187 440 209 452T265 469T339 468T427 428ZM362 244Q367 273 356 292T326 321T284 332T241 325T209
300T199 258Q204 220 231 195T284 163Q294 161 306 164T329 176T348 201T362 244Z" />
<glyph unicode="7" glyph-name="seven" horiz-adv-x="485" d="M12 737L458 748L470 535Q416 428 370 328Q350 285 331 240T296 150T267 66T250 -7L65 4Q81 83 110 175Q135 253 176 353T283 564L-1 558L12 737Z" />
<glyph unicode="8" glyph-name="eight" horiz-adv-x="511" d="M506 216Q509 194 499 159T462 89T393 24T286 -15Q224 -25 179 -10T104 27Q70 53 47 88Q25 119 15 156T8 232T34 313T98 392Q55 442 39 489T25 577T49 651T99 709Q124 729 154 741T215 756Q243 761
273 759T336 746Q351 741 365 735T393 718Q426 696 449 664T477 590T467 501T408 401Q461 357 483 310T506 216ZM289 602Q270 611 251 609T218 598T195 577T190 553Q192 548 194 542T198 530Q202 523 209 516Q215 510 224 503T247 490Q261 496 272 503T290 518Q298
526 303 534Q312 557 312 573T289 602ZM306 171Q338 190 336 221V222Q334 244 321 264T286 298Q278 304 270 308T254 314Q249 312 244 310T233 304Q217 295 205 281T187 252T182 220T192 190Q208 163 241 159T306 171Z" />
<glyph unicode="9" glyph-name="nine" horiz-adv-x="490" d="M74 328Q41 355 23 384T-2 443T-8 499T0 550T14 591T28 618Q50 656 77 684T132 730T185 756T231 764L248 763Q265 762 280 758T310 748Q346 735 381 709T444 634T484 511T487 330Q480 260 465 208T429
119T385 56T337 16Q281 -20 215 -18H204Q141 -14 91 29T9 146L148 218Q158 203 168 195T189 181Q200 175 213 174Q217 174 220 175Q230 174 244 181T272 205T298 247T317 309Q308 303 285 292T230 277T158 283T74 328ZM276 440Q303 453 312 474T319 517T302 559T269
590T229 602T187 583Q173 569 166 552T156 518T155 483T162 454Q167 444 176 436T200 425T233 424T276 440Z" />
<glyph unicode=":" glyph-name="colon" horiz-adv-x="240" d="M105 96Q85 100 70 112T44 141T30 181T30 227Q33 249 43 268T68 299T101 317T139 319Q158 315 173 304T199 275T214 237T215 193Q211 169 201 150T175 117T142 98T105 96ZM87 398Q67 401 52 413T26
442T12 482T12 528Q15 550 25 569T50 600T83 619T121 622Q140 618 156 606T182 577T196 538T197 494Q194 470 184 451T158 418T125 400T87 398Z" />
<glyph unicode=";" glyph-name="semicolon" horiz-adv-x="250" d="M89 428Q69 431 54 442T27 470T12 510T10 556Q13 578 22 597T46 629T79 649T116 652Q135 649 151 638T178 610T194 572T196 528Q193 504 183 484T159 451T126 431T89 428ZM143 351Q162 348 178
337T205 309T221 271T223 227Q222 223 222 220T220 213V212V211Q219 207 217 197Q212 185 203 166T179 125T139 84T82 48L56 70Q64 76 72 86Q79 94 85 105T95 133Q65 147 49 180T38 256Q40 278 50 297T74 329T106 348T143 351Z" />
<glyph unicode="&lt;" glyph-name="less" horiz-adv-x="416" d="M23 281L13 423L321 617L391 485L181 363L375 245L307 117L23 281V281Z" />
<glyph unicode="=" glyph-name="equal" horiz-adv-x="450" d="M436 394L22 374L10 504L415 514L436 394ZM22 174L33 314H418V184L22 174Z" />
<glyph unicode="&gt;" glyph-name="greater" horiz-adv-x="382" d="M89 129L24 253L208 368L9 487L75 615L368 427L359 288L89 129Z" />
<glyph unicode="A" glyph-name="A" horiz-adv-x="553" d="M382 764L602 -3L390 -15L340 213L197 185L157 -17L-40 -15L149 743L382 764ZM231 362L304 374L269 547L231 362Z" />
<glyph unicode="B" glyph-name="B" horiz-adv-x="536" d="M354 418Q418 404 456 372T512 299T526 213T505 127T453 57T375 17Q309 0 247 -7T137 -16Q81 -19 30 -17L4 749Q74 758 146 759T278 749T380 707T433 624Q444 571 433 533T404 469Q384 439 354 418ZM186
498Q208 506 226 517Q241 526 253 537T267 562Q267 575 257 583T232 596T204 601T182 599L186 498ZM207 157Q243 158 272 166Q297 173 317 186T338 225Q338 239 324 249T288 266T243 272T200 265L207 157Z" />
<glyph unicode="C" glyph-name="C" horiz-adv-x="516" d="M360 538Q331 577 306 582T259 574T222 535T197 489Q191 475 185 450T176 395T173 333T179 271T197 219T230 186Q258 172 283 178T327 199Q349 215 368 241L509 151Q500 127 479 99T423 46T344 5T244 -12Q180
-12 136 17T63 93T20 200T1 323Q-3 385 8 456T48 592T126 704T246 766Q282 773 312 771T367 761T413 740T449 713Q486 680 509 632L360 538Z" />
<glyph unicode="D" glyph-name="D" horiz-adv-x="552" d="M18 754Q132 771 232 756T405 689T513 543T537 312Q529 237 504 183T443 91T362 31T273 -4Q167 -33 39 -19L18 754ZM231 196Q267 204 295 225Q319 243 339 277T359 370Q359 415 347 451T314 511T266 549T207
562L231 196Z" />
<glyph unicode="E" glyph-name="E" horiz-adv-x="524" d="M18 751L479 768V588L217 568L229 482L411 490L422 306L245 293L251 194L509 198L511 2L33 -7L18 751V751Z" />
<glyph unicode="F" glyph-name="F" horiz-adv-x="496" d="M259 -3L34 -9L18 761L482 771L486 595L227 577L231 483L419 493L431 309L243 296L259 -3V-3Z" />
<glyph unicode="G" glyph-name="G" horiz-adv-x="552" d="M322 556Q305 580 287 584T252 581T221 554T199 515Q193 498 188 461T182 379T190 291T219 220Q238 195 255 185T289 176T318 186T340 207T353 232T357 255L275 259L281 425H532Q538 389 540 348T540 264T527
180T496 104T444 41T366 -2Q302 -23 243 -12T135 37T54 138T11 282Q0 364 7 440T39 579T109 689T216 760Q256 775 290 776T353 769T403 745T444 712Q484 670 510 606L322 556Z" />
<glyph unicode="H" glyph-name="H" horiz-adv-x="564" d="M12 751L221 767L218 464L344 469L341 748L549 761L541 6L354 -4L352 297L214 287L218 -7L23 -11L12 751V751Z" />
<glyph unicode="I" glyph-name="I" horiz-adv-x="270" d="M41 759L239 765L230 -7L53 -4L41 759V759Z" />
<glyph unicode="J" glyph-name="J" horiz-adv-x="508" d="M315 769L487 758L493 314Q494 217 468 143Q457 111 439 82T392 32T324 0T231 -4Q180 2 144 20T82 63T42 119T20 180Q2 252 13 341L187 325Q183 285 188 254Q190 241 194 229T206 206T225 190T252 184Q274
181 290 200Q303 216 313 258T320 384L315 769Z" />
<glyph unicode="K" glyph-name="K" horiz-adv-x="568" d="M26 776L205 761L196 527L397 798L547 695L365 452L567 53L395 -7L239 320L205 278L199 -15L14 -22L26 776V776Z" />
<glyph unicode="L" glyph-name="L" horiz-adv-x="479" d="M18 764L224 754L239 201L476 207L474 -1L42 -9L18 764V764Z" />
<glyph unicode="M" glyph-name="M" horiz-adv-x="679" d="M10 0L72 773L271 752L334 428L403 757L585 767L676 5L481 -17L462 358L405 127L273 112L208 357L199 0H10V0Z" />
<glyph unicode="N" glyph-name="N" horiz-adv-x="572" d="M46 -19L6 748L230 767L380 339L363 763L538 764L562 8L345 -14L201 371L227 -17L46 -19V-19Z" />
<glyph unicode="O" glyph-name="O" horiz-adv-x="543" d="M522 465Q535 383 529 316T505 195T458 102T399 36T338 -4T283 -17H266Q235 -17 202 -6Q164 5 126 29T58 101T11 222T-3 404Q0 474 12 527T43 620T85 685T132 728Q187 767 255 770H266Q332 770 388 726T479
607Q490 584 497 564T508 529T515 505T517 495Q519 487 520 480T522 465ZM369 372Q371 424 365 460T347 519T321 554T292 571Q280 577 268 577Q264 577 261 576Q248 576 230 562T195 520T171 447T170 343Q170 340 170 337T171 330Q172 322 174 313Q176 305 178
296T185 275Q199 239 220 217T266 195H270Q296 196 317 215Q335 231 350 267T369 372Z" />
<glyph unicode="P" glyph-name="P" horiz-adv-x="519" d="M514 589Q517 572 517 547T511 493T487 435T436 382T349 341T219 321L229 -4L26 -10L11 753Q62 756 114 759Q159 761 211 762T312 764Q359 764 395 746T456 702T495 645T514 589ZM205 486Q275 486 308
501T350 536T350 574T326 595Q312 599 290 599T247 597Q222 595 197 592L205 486Z" />
<glyph unicode="Q" glyph-name="Q" horiz-adv-x="572" d="M443 -32L396 24Q370 3 346 -7T301 -22Q278 -27 258 -26L247 -25Q183 -23 131 23T47 146Q27 193 21 226T14 260Q12 268 11 275T10 291Q0 373 9 440T38 561T86 653T146 717T207 754T260 765L277 764Q309
763 339 751Q375 739 411 713T474 637T516 514T523 331Q516 242 494 180L574 94L443 -32ZM269 179L213 247L336 351L369 316Q377 357 372 411V423Q372 431 370 441Q367 457 361 480Q348 517 328 540T284 564H279Q253 564 232 546Q214 530 197 495T175 390Q171 337
176 301T191 241T215 205T243 186Q253 179 267 179H269Z" />
<glyph unicode="R" glyph-name="R" horiz-adv-x="569" d="M429 -35L257 319Q247 318 238 318T218 317L213 6L10 -5L29 758Q80 760 132 760Q177 760 229 759T330 756Q377 754 412 735T471 688T508 629T524 572Q526 555 525 530T516 477T489 420T436 368L606 47L429
-35ZM214 487Q282 479 313 492T353 524T352 563T328 587Q314 592 295 594T259 597Q239 598 217 597L214 487Z" />
<glyph unicode="S" glyph-name="S" horiz-adv-x="524" d="M353 552Q324 581 289 593T224 604T174 587T154 546Q154 535 161 526T179 508T204 493T233 480Q267 467 311 457Q389 432 436 391T506 303T526 207T503 116T443 42T353 -2Q294 -16 248 -13T165 4T102 41T56
89Q11 149 -7 233L152 277Q156 258 171 235T207 193T256 168T312 174Q340 187 341 207T328 248T289 284T243 307Q221 313 189 323T124 352T60 399T13 469Q-4 511 -1 561T27 655T101 731T227 765Q265 767 296 762T351 747T395 724T429 697Q462 664 480 621L353 552Z"
/>
<glyph unicode="T" glyph-name="T" horiz-adv-x="519" d="M-45 773L524 765L519 580H340L333 -10L148 -17L160 582L-36 580L-45 773V773Z" />
<glyph unicode="U" glyph-name="U" horiz-adv-x="559" d="M40 761L237 756Q230 656 225 567Q223 529 221 490T218 416T215 350T214 301Q214 251 234 227T280 199T329 209T357 251Q361 274 362 307T364 380T364 461T362 545Q358 641 352 747L537 755Q546 621 550
500Q551 449 552 396T552 293T547 203T537 134Q529 101 513 77T475 37T429 10T379 -5Q321 -17 251 -12Q182 -9 128 21Q105 33 84 52T46 100T19 168T11 258L40 761Z" />
<glyph unicode="V" glyph-name="V" horiz-adv-x="553" d="M-8 768L199 760L264 266L358 760L561 753L368 -9L153 -19L-8 768V768Z" />
<glyph unicode="W" glyph-name="W" horiz-adv-x="670" d="M-17 754L167 766L185 383L265 688L402 683L470 357L495 763L666 752L577 -2L364 -17L321 320L256 -7L66 3L-17 754V754Z" />
<glyph unicode="X" glyph-name="X" horiz-adv-x="609" d="M447 -34Q432 -5 410 34Q391 67 363 115T296 225L128 -32L-40 72L177 375Q136 439 88 508T-17 664L149 768L303 534L480 769L616 683L409 382L608 90L447 -34Z" />
<glyph unicode="Y" glyph-name="Y" horiz-adv-x="461" d="M-119 655L42 762L184 569L336 785L469 691L279 413L290 -3L97 -16L96 403L-119 655V655Z" />
<glyph unicode="Z" glyph-name="Z" horiz-adv-x="559" d="M38 760L515 752L524 572L188 188L556 206L546 14L25 -20L9 242L295 571L15 573L38 760V760Z" />
<glyph unicode="a" glyph-name="a" horiz-adv-x="553" d="M382 764L602 -3L390 -15L340 213L197 185L157 -17L-40 -15L149 743L382 764ZM231 362L304 374L269 547L231 362Z" />
<glyph unicode="b" glyph-name="b" horiz-adv-x="536" d="M354 418Q418 404 456 372T512 299T526 213T505 127T453 57T375 17Q309 0 247 -7T137 -16Q81 -19 30 -17L4 749Q74 758 146 759T278 749T380 707T433 624Q444 571 433 533T404 469Q384 439 354 418ZM186
498Q208 506 226 517Q241 526 253 537T267 562Q267 575 257 583T232 596T204 601T182 599L186 498ZM207 157Q243 158 272 166Q297 173 317 186T338 225Q338 239 324 249T288 266T243 272T200 265L207 157Z" />
<glyph unicode="c" glyph-name="c" horiz-adv-x="516" d="M360 538Q331 577 306 582T259 574T222 535T197 489Q191 475 185 450T176 395T173 333T179 271T197 219T230 186Q258 172 283 178T327 199Q349 215 368 241L509 151Q500 127 479 99T423 46T344 5T244 -12Q180
-12 136 17T63 93T20 200T1 323Q-3 385 8 456T48 592T126 704T246 766Q282 773 312 771T367 761T413 740T449 713Q486 680 509 632L360 538Z" />
<glyph unicode="d" glyph-name="d" horiz-adv-x="552" d="M18 754Q132 771 232 756T405 689T513 543T537 312Q529 237 504 183T443 91T362 31T273 -4Q167 -33 39 -19L18 754ZM231 196Q267 204 295 225Q319 243 339 277T359 370Q359 415 347 451T314 511T266 549T207
562L231 196Z" />
<glyph unicode="e" glyph-name="e" horiz-adv-x="524" d="M18 751L479 768V588L217 568L229 482L411 490L422 306L245 293L251 194L509 198L511 2L33 -7L18 751Z" />
<glyph unicode="f" glyph-name="f" horiz-adv-x="496" d="M259 -3L34 -9L18 761L482 771L486 595L227 577L231 483L419 493L431 309L243 296L259 -3Z" />
<glyph unicode="g" glyph-name="g" horiz-adv-x="552" d="M322 556Q305 580 287 584T252 581T221 554T199 515Q193 498 188 461T182 379T190 291T219 220Q238 195 255 185T289 176T318 186T340 207T353 232T357 255L275 259L281 425H532Q538 389 540 348T540 264T527
180T496 104T444 41T366 -2Q302 -23 243 -12T135 37T54 138T11 282Q0 364 7 440T39 579T109 689T216 760Q256 775 290 776T353 769T403 745T444 712Q484 670 510 606L322 556Z" />
<glyph unicode="h" glyph-name="h" horiz-adv-x="564" d="M12 751L221 767L218 464L344 469L341 748L549 761L541 6L354 -4L352 297L214 287L218 -7L23 -11L12 751Z" />
<glyph unicode="i" glyph-name="i" horiz-adv-x="270" d="M41 759L239 765L230 -7L53 -4L41 759Z" />
<glyph unicode="j" glyph-name="j" horiz-adv-x="508" d="M315 769L487 758L493 314Q494 217 468 143Q457 111 439 82T392 32T324 0T231 -4Q180 2 144 20T82 63T42 119T20 180Q2 252 13 341L187 325Q183 285 188 254Q190 241 194 229T206 206T225 190T252 184Q274
181 290 200Q303 216 313 258T320 384L315 769Z" />
<glyph unicode="k" glyph-name="k" horiz-adv-x="568" d="M26 776L205 761L196 527L397 798L547 695L365 452L567 53L395 -7L239 320L205 278L199 -15L14 -22L26 776Z" />
<glyph unicode="l" glyph-name="l" horiz-adv-x="479" d="M18 764L224 754L239 201L476 207L474 -1L42 -9L18 764Z" />
<glyph unicode="m" glyph-name="m" horiz-adv-x="679" d="M10 0L72 773L271 752L334 428L403 757L585 767L676 5L481 -17L462 358L405 127L273 112L208 357L199 0H10Z" />
<glyph unicode="n" glyph-name="n" horiz-adv-x="572" d="M46 -19L6 748L230 767L380 339L363 763L538 764L562 8L345 -14L201 371L227 -17L46 -19Z" />
<glyph unicode="o" glyph-name="o" horiz-adv-x="543" d="M522 465Q535 383 529 316T505 195T458 102T399 36T338 -4T283 -17H266Q235 -17 202 -6Q164 5 126 29T58 101T11 222T-3 404Q0 474 12 527T43 620T85 685T132 728Q187 767 255 770H266Q332 770 388 726T479
607Q490 584 497 564T508 529T515 505T517 495Q519 487 520 480T522 465ZM369 372Q371 424 365 460T347 519T321 554T292 571Q280 577 268 577Q264 577 261 576Q248 576 230 562T195 520T171 447T170 343Q170 340 170 337T171 330Q172 322 174 313Q176 305 178
296T185 275Q199 239 220 217T266 195H270Q296 196 317 215Q335 231 350 267T369 372Z" />
<glyph unicode="p" glyph-name="p" horiz-adv-x="519" d="M514 589Q517 572 517 547T511 493T487 435T436 382T349 341T219 321L229 -4L26 -10L11 753Q62 756 114 759Q159 761 211 762T312 764Q359 764 395 746T456 702T495 645T514 589ZM205 486Q275 486 308
501T350 536T350 574T326 595Q312 599 290 599T247 597Q222 595 197 592L205 486Z" />
<glyph unicode="q" glyph-name="q" horiz-adv-x="572" d="M443 -32L396 24Q370 3 346 -7T301 -22Q278 -27 258 -26L247 -25Q183 -23 131 23T47 146Q27 193 21 226T14 260Q12 268 11 275T10 291Q0 373 9 440T38 561T86 653T146 717T207 754T260 765L277 764Q309
763 339 751Q375 739 411 713T474 637T516 514T523 331Q516 242 494 180L574 94L443 -32ZM269 179L213 247L336 351L369 316Q377 357 372 411V423Q372 431 370 441Q367 457 361 480Q348 517 328 540T284 564H279Q253 564 232 546Q214 530 197 495T175 390Q171 337
176 301T191 241T215 205T243 186Q253 179 267 179H269Z" />
<glyph unicode="r" glyph-name="r" horiz-adv-x="569" d="M429 -35L257 319Q247 318 238 318T218 317L213 6L10 -5L29 758Q80 760 132 760Q177 760 229 759T330 756Q377 754 412 735T471 688T508 629T524 572Q526 555 525 530T516 477T489 420T436 368L606 47L429
-35ZM214 487Q282 479 313 492T353 524T352 563T328 587Q314 592 295 594T259 597Q239 598 217 597L214 487Z" />
<glyph unicode="s" glyph-name="s" horiz-adv-x="524" d="M353 552Q324 581 289 593T224 604T174 587T154 546Q154 535 161 526T179 508T204 493T233 480Q267 467 311 457Q389 432 436 391T506 303T526 207T503 116T443 42T353 -2Q294 -16 248 -13T165 4T102 41T56
89Q11 149 -7 233L152 277Q156 258 171 235T207 193T256 168T312 174Q340 187 341 207T328 248T289 284T243 307Q221 313 189 323T124 352T60 399T13 469Q-4 511 -1 561T27 655T101 731T227 765Q265 767 296 762T351 747T395 724T429 697Q462 664 480 621L353 552Z"
/>
<glyph unicode="t" glyph-name="t" horiz-adv-x="519" d="M-45 773L524 765L519 580H340L333 -10L148 -17L160 582L-36 580L-45 773Z" />
<glyph unicode="u" glyph-name="u" horiz-adv-x="559" d="M40 761L237 756Q230 656 225 567Q223 529 221 490T218 416T215 350T214 301Q214 251 234 227T280 199T329 209T357 251Q361 274 362 307T364 380T364 461T362 545Q358 641 352 747L537 755Q546 621 550
500Q551 449 552 396T552 293T547 203T537 134Q529 101 513 77T475 37T429 10T379 -5Q321 -17 251 -12Q182 -9 128 21Q105 33 84 52T46 100T19 168T11 258L40 761Z" />
<glyph unicode="v" glyph-name="v" horiz-adv-x="553" d="M-8 768L199 760L264 266L358 760L561 753L368 -9L153 -19L-8 768Z" />
<glyph unicode="w" glyph-name="w" horiz-adv-x="670" d="M-17 754L167 766L185 383L265 688L402 683L470 357L495 763L666 752L577 -2L364 -17L321 320L256 -7L66 3L-17 754Z" />
<glyph unicode="x" glyph-name="x" horiz-adv-x="609" d="M447 -34Q432 -5 410 34Q391 67 363 115T296 225L128 -32L-40 72L177 375Q136 439 88 508T-17 664L149 768L303 534L480 769L616 683L409 382L608 90L447 -34Z" />
<glyph unicode="y" glyph-name="y" horiz-adv-x="461" d="M-119 655L42 762L184 569L336 785L469 691L279 413L290 -3L97 -16L96 403L-119 655Z" />
<glyph unicode="z" glyph-name="z" horiz-adv-x="559" d="M38 760L515 752L524 572L188 188L556 206L546 14L25 -20L9 242L295 571L15 573L38 760Z" />
</font>
</defs>
</svg>
